# xmcd
#
# Track frame offsets:
#	150
#	20198
#	41551
#	62238
#	80563
#	100101
#	117114
#	137075
#	157560
#	180314
#
# Disc length: 2661 seconds
#
# Revision: 2
# Processed by: cddbd v1.5.2PL0 Copyright (c) Steve Scherf et al.
# Submitted via: EasyCDDAExtractor 15.3.0.1
#
DISCID=770a630a
DTITLE=Myriam Hernandez - Enamorandome
DYEAR=2007
DGENRE=Latin
TTITLE0=Donde Hubo Amor
TTITLE1=No Pense Enamorarme Otra Vez (Con La Participacion De Gilberto Santa R
TTITLE1=osa)
TTITLE2=Vuela Muy Alto
TTITLE3=Bandera Blanca
TTITLE4=Besame
TTITLE5=Mirame
TTITLE6=Donde Estara Mi Primavera
TTITLE7=Huellas
TTITLE8=Volver A Amar
TTITLE9=Amor Mio
EXTD=
EXTT0=
EXTT1=
EXTT2=
EXTT3=
EXTT4=
EXTT5=
EXTT6=
EXTT7=
EXTT8=
EXTT9=
PLAYORDER=
